<svg xmlns="http://www.w3.org/2000/svg" xmlns:xlink="http://www.w3.org/1999/xlink" contentStyleType="text/css" height="468px" preserveAspectRatio="none" style="width:1555px;height:468px;background:#FFFFFF;" version="1.1" viewBox="0 0 1555 468" width="1555px" zoomAndPan="magnify"><defs/><g><!--entity configurablefunctions--><g id="elem_configurablefunctions"><path d="M8.5,362 L176.7034,362 A3.75,3.75 0 0 1 179.2034,364.5 L186.2034,387.0679 L443.0125,387.0679 A2.5,2.5 0 0 1 445.5125,389.5679 L445.5125,458.7717 A2.5,2.5 0 0 1 443.0125,461.2717 L8.5,461.2717 A2.5,2.5 0 0 1 6,458.7717 L6,364.5 A2.5,2.5 0 0 1 8.5,362 " fill="#F1F1F1" style="stroke:#181818;stroke-width:0.5;"/><line style="stroke:#181818;stroke-width:0.5;" x1="6" x2="186.2034" y1="387.0679" y2="387.0679"/><text fill="#000000" font-family="sans-serif" font-size="14" font-weight="bold" lengthAdjust="spacing" textLength="155.2034" x="16" y="379.9659">configurablefunctions</text><text fill="#000000" font-family="sans-serif" font-size="14" lengthAdjust="spacing" textLength="47.3338" x="16" y="409.0339">&#171;libjar&#187;</text><text fill="#000000" font-family="sans-serif" font-size="14" lengthAdjust="spacing" textLength="3.64" x="16" y="428.1018">&#160;</text><text fill="#000000" font-family="sans-serif" font-size="14" lengthAdjust="spacing" textLength="409.5125" x="16" y="447.1697">PackageUrl: pkg:maven/org.ct42.fnflow/configurablefunctions</text></g><!--entity fnlib--><g id="elem_fnlib"><path d="M66.5,184 L111.5179,184 A3.75,3.75 0 0 1 114.0179,186.5 L121.0179,209.0679 L385.6949,209.0679 A2.5,2.5 0 0 1 388.1949,211.5679 L388.1949,280.7717 A2.5,2.5 0 0 1 385.6949,283.2717 L66.5,283.2717 A2.5,2.5 0 0 1 64,280.7717 L64,186.5 A2.5,2.5 0 0 1 66.5,184 " fill="#F1F1F1" style="stroke:#181818;stroke-width:0.5;"/><line style="stroke:#181818;stroke-width:0.5;" x1="64" x2="121.0179" y1="209.0679" y2="209.0679"/><text fill="#000000" font-family="sans-serif" font-size="14" font-weight="bold" lengthAdjust="spacing" textLength="32.0179" x="74" y="201.9659">fnlib</text><text fill="#000000" font-family="sans-serif" font-size="14" lengthAdjust="spacing" textLength="47.3338" x="74" y="231.0339">&#171;libjar&#187;</text><text fill="#000000" font-family="sans-serif" font-size="14" lengthAdjust="spacing" textLength="3.64" x="74" y="250.1018">&#160;</text><text fill="#000000" font-family="sans-serif" font-size="14" lengthAdjust="spacing" textLength="294.1949" x="74" y="269.1697">PackageUrl: pkg:maven/org.ct42.fnflow/fnlib</text></g><!--entity batchdlt--><g id="elem_batchdlt"><path d="M484,362 L555.9958,362 A3.75,3.75 0 0 1 558.4958,364.5 L565.4958,387.0679 L828.0588,387.0679 A2.5,2.5 0 0 1 830.5588,389.5679 L830.5588,458.7717 A2.5,2.5 0 0 1 828.0588,461.2717 L484,461.2717 A2.5,2.5 0 0 1 481.5,458.7717 L481.5,364.5 A2.5,2.5 0 0 1 484,362 " fill="#F1F1F1" style="stroke:#181818;stroke-width:0.5;"/><line style="stroke:#181818;stroke-width:0.5;" x1="481.5" x2="565.4958" y1="387.0679" y2="387.0679"/><text fill="#000000" font-family="sans-serif" font-size="14" font-weight="bold" lengthAdjust="spacing" textLength="58.9958" x="491.5" y="379.9659">batchdlt</text><text fill="#000000" font-family="sans-serif" font-size="14" lengthAdjust="spacing" textLength="47.3338" x="491.5" y="409.0339">&#171;libjar&#187;</text><text fill="#000000" font-family="sans-serif" font-size="14" lengthAdjust="spacing" textLength="3.64" x="491.5" y="428.1018">&#160;</text><text fill="#000000" font-family="sans-serif" font-size="14" lengthAdjust="spacing" textLength="319.0588" x="491.5" y="447.1697">PackageUrl: pkg:maven/org.ct42.fnflow/batchdlt</text></g><!--entity batchfnlib--><g id="elem_batchfnlib"><path d="M426,184 L510.8057,184 A3.75,3.75 0 0 1 513.3057,186.5 L520.3057,209.0679 L782.0848,209.0679 A2.5,2.5 0 0 1 784.5848,211.5679 L784.5848,280.7717 A2.5,2.5 0 0 1 782.0848,283.2717 L426,283.2717 A2.5,2.5 0 0 1 423.5,280.7717 L423.5,186.5 A2.5,2.5 0 0 1 426,184 " fill="#F1F1F1" style="stroke:#181818;stroke-width:0.5;"/><line style="stroke:#181818;stroke-width:0.5;" x1="423.5" x2="520.3057" y1="209.0679" y2="209.0679"/><text fill="#000000" font-family="sans-serif" font-size="14" font-weight="bold" lengthAdjust="spacing" textLength="71.8057" x="433.5" y="201.9659">batchfnlib</text><text fill="#000000" font-family="sans-serif" font-size="14" lengthAdjust="spacing" textLength="47.3338" x="433.5" y="231.0339">&#171;libjar&#187;</text><text fill="#000000" font-family="sans-serif" font-size="14" lengthAdjust="spacing" textLength="3.64" x="433.5" y="250.1018">&#160;</text><text fill="#000000" font-family="sans-serif" font-size="14" lengthAdjust="spacing" textLength="331.0848" x="433.5" y="269.1697">PackageUrl: pkg:maven/org.ct42.fnflow/batchfnlib</text></g><!--entity fnflow_json_processors_kafka--><g id="elem_fnflow_json_processors_kafka"><path d="M175.5,6 L394.7473,6 A3.75,3.75 0 0 1 397.2473,8.5 L404.2473,31.0679 L654.0703,31.0679 A2.5,2.5 0 0 1 656.5703,33.5679 L656.5703,102.7717 A2.5,2.5 0 0 1 654.0703,105.2717 L175.5,105.2717 A2.5,2.5 0 0 1 173,102.7717 L173,8.5 A2.5,2.5 0 0 1 175.5,6 " fill="#F1F1F1" style="stroke:#181818;stroke-width:0.5;"/><line style="stroke:#181818;stroke-width:0.5;" x1="173" x2="404.2473" y1="31.0679" y2="31.0679"/><text fill="#000000" font-family="sans-serif" font-size="14" font-weight="bold" lengthAdjust="spacing" textLength="206.2473" x="183" y="23.9659">fnflow_json_processors_kafka</text><text fill="#000000" font-family="sans-serif" font-size="14" lengthAdjust="spacing" textLength="176.8193" x="183" y="53.0339">&#171;SpringBoot native image&#187;</text><text fill="#000000" font-family="sans-serif" font-size="14" lengthAdjust="spacing" textLength="3.64" x="183" y="72.1018">&#160;</text><text fill="#000000" font-family="sans-serif" font-size="14" lengthAdjust="spacing" textLength="453.5703" x="183" y="91.1697">Docker Pull Command: docker pull ct42/fnflow-json-processors-kafka</text></g><!--entity fnflow_kafkaservice--><g id="elem_fnflow_kafkaservice"><path d="M695,6 L847.6915,6 A3.75,3.75 0 0 1 850.1915,8.5 L857.1915,31.0679 L1110.9904,31.0679 A2.5,2.5 0 0 1 1113.4904,33.5679 L1113.4904,102.7717 A2.5,2.5 0 0 1 1110.9904,105.2717 L695,105.2717 A2.5,2.5 0 0 1 692.5,102.7717 L692.5,8.5 A2.5,2.5 0 0 1 695,6 " fill="#F1F1F1" style="stroke:#181818;stroke-width:0.5;"/><line style="stroke:#181818;stroke-width:0.5;" x1="692.5" x2="857.1915" y1="31.0679" y2="31.0679"/><text fill="#000000" font-family="sans-serif" font-size="14" font-weight="bold" lengthAdjust="spacing" textLength="139.6915" x="702.5" y="23.9659">fnflow_kafkaservice</text><text fill="#000000" font-family="sans-serif" font-size="14" lengthAdjust="spacing" textLength="176.8193" x="702.5" y="53.0339">&#171;SpringBoot native image&#187;</text><text fill="#000000" font-family="sans-serif" font-size="14" lengthAdjust="spacing" textLength="3.64" x="702.5" y="72.1018">&#160;</text><text fill="#000000" font-family="sans-serif" font-size="14" lengthAdjust="spacing" textLength="390.9904" x="702.5" y="91.1697">Docker Pull Command: docker pull ct42/fnflow-kafkaservice</text></g><!--entity fnflow_manager--><g id="elem_fnflow_manager"><path d="M1151.5,6 L1278.5576,6 A3.75,3.75 0 0 1 1281.0576,8.5 L1288.0576,31.0679 L1546.0285,31.0679 A2.5,2.5 0 0 1 1548.5285,33.5679 L1548.5285,102.7717 A2.5,2.5 0 0 1 1546.0285,105.2717 L1151.5,105.2717 A2.5,2.5 0 0 1 1149,102.7717 L1149,8.5 A2.5,2.5 0 0 1 1151.5,6 " fill="#F1F1F1" style="stroke:#181818;stroke-width:0.5;"/><line style="stroke:#181818;stroke-width:0.5;" x1="1149" x2="1288.0576" y1="31.0679" y2="31.0679"/><text fill="#000000" font-family="sans-serif" font-size="14" font-weight="bold" lengthAdjust="spacing" textLength="114.0576" x="1159" y="23.9659">fnflow_manager</text><text fill="#000000" font-family="sans-serif" font-size="14" lengthAdjust="spacing" textLength="176.8193" x="1159" y="53.0339">&#171;SpringBoot native image&#187;</text><text fill="#000000" font-family="sans-serif" font-size="14" lengthAdjust="spacing" textLength="3.64" x="1159" y="72.1018">&#160;</text><text fill="#000000" font-family="sans-serif" font-size="14" lengthAdjust="spacing" textLength="369.5285" x="1159" y="91.1697">Docker Pull Command: docker pull ct42/fnflow-manager</text></g><!--link fnlib to configurablefunctions--><g id="link_fnlib_configurablefunctions"><path codeLine="43" d="M226,283.06 C226,307.58 226,356.3179 226,380.8579 " fill="none" id="fnlib-to-configurablefunctions" style="stroke:#181818;stroke-width:1.0;"/><polygon fill="#181818" points="226,386.8579,230,377.8579,226,381.8579,222,377.8579,226,386.8579" style="stroke:#181818;stroke-width:1.0;"/><text fill="#000000" font-family="sans-serif" font-size="13" lengthAdjust="spacing" textLength="68.8091" x="227" y="327.897">dependson</text></g><!--link batchfnlib to configurablefunctions--><g id="link_batchfnlib_configurablefunctions"><path codeLine="44" d="M499.71,283.06 C446.93,307.63 388.4893,359.9153 335.7193,384.4853 " fill="none" id="batchfnlib-to-configurablefunctions" style="stroke:#181818;stroke-width:1.0;"/><polygon fill="#181818" points="330.28,387.0179,340.1273,386.8453,334.8128,384.9074,336.7506,379.5929,330.28,387.0179" style="stroke:#181818;stroke-width:1.0;"/><text fill="#000000" font-family="sans-serif" font-size="13" lengthAdjust="spacing" textLength="68.8091" x="428" y="327.897">dependson</text></g><!--link batchfnlib to batchdlt--><g id="link_batchfnlib_batchdlt"><path codeLine="45" d="M618.35,283.06 C625.59,307.58 632.66,356.5638 639.91,381.1038 " fill="none" id="batchfnlib-to-batchdlt" style="stroke:#181818;stroke-width:1.0;"/><polygon fill="#181818" points="641.61,386.8579,642.8961,377.0934,640.1934,382.0628,635.2239,379.36,641.61,386.8579" style="stroke:#181818;stroke-width:1.0;"/><text fill="#000000" font-family="sans-serif" font-size="13" lengthAdjust="spacing" textLength="68.8091" x="632" y="327.897">dependson</text></g><!--link fnflow_json_processors_kafka to fnlib--><g id="link_fnflow_json_processors_kafka_fnlib"><path codeLine="47" d="M362.85,105.06 C336.52,129.58 309.0515,180.2296 282.6915,204.7696 " fill="none" id="fnflow_json_processors_kafka-to-fnlib" style="stroke:#181818;stroke-width:1.0;"/><polygon fill="#181818" points="278.3,208.8579,287.6129,205.6531,281.9596,205.451,282.1618,199.7977,278.3,208.8579" style="stroke:#181818;stroke-width:1.0;"/><text fill="#000000" font-family="sans-serif" font-size="13" lengthAdjust="spacing" textLength="68.8091" x="328" y="149.897">dependson</text></g><!--link fnflow_json_processors_kafka to batchfnlib--><g id="link_fnflow_json_processors_kafka_batchfnlib"><path codeLine="48" d="M467.15,105.06 C493.48,129.58 520.9485,180.2296 547.3085,204.7696 " fill="none" id="fnflow_json_processors_kafka-to-batchfnlib" style="stroke:#181818;stroke-width:1.0;"/><polygon fill="#181818" points="551.7,208.8579,547.8382,199.7977,548.0404,205.451,542.3871,205.6531,551.7,208.8579" style="stroke:#181818;stroke-width:1.0;"/><text fill="#000000" font-family="sans-serif" font-size="13" lengthAdjust="spacing" textLength="68.8091" x="516" y="149.897">dependson</text></g><!--SRC=[jPFHJeCm58Rl-nHz0RR4U4KMBjG7M6AyCeQKqc97EQTf2xw-BSMjEjJCE2v8Uk3_lZ-b6CPxrWdA4QJgHiiQBUG8t2i4Hvy9ZTTkfrLpOBQgqdg-xrFooUgIchuh1pO9sABjDjpVtcmaI8rlsrKkUI74B689WRs8ldWkqCoK7DimprzRxS_8z5Bq1-cC_Z_DJwZFkn8VrWU7K1kBN3Y7rjKzapqxAX-DLT3T8NeApAj9K3M4SDxX0NalBDsFMjDx70O6RKdRD3Hn6Ajiaws8jk9aAsRRIgjvxeIT51TNAvDBLZg4S5ZPg-aNVZIdxrmKrJS_IO088w0DkqUoW_6dmF7Ovk-G7qz3Z2L0dlaraecpt3i0]--></g></svg>