<svg xmlns="http://www.w3.org/2000/svg" contentStyleType="text/css" height="245px" preserveAspectRatio="none"
     style="width:1047px;height:245px;background:#FFFFFF;" version="1.1" viewBox="0 0 1047 245" width="1047px"
     zoomAndPan="magnify"><defs/><g><!--entity input-topic--><g id="elem_input-topic"><rect fill="#F1F1F1" height="49.0679" rx="2.5" ry="2.5" style="stroke:#181818;stroke-width:0.5;" width="111.5537" x="7" y="112"/><rect fill="#F1F1F1" height="10" style="stroke:#181818;stroke-width:0.5;" width="15" x="98.5537" y="117"/><rect fill="#F1F1F1" height="2" style="stroke:#181818;stroke-width:0.5;" width="4" x="96.5537" y="119"/><rect fill="#F1F1F1" height="2" style="stroke:#181818;stroke-width:0.5;" width="4" x="96.5537" y="123"/><text fill="#000000" font-family="sans-serif" font-size="14" lengthAdjust="spacing" textLength="71.5537" x="22" y="146.9659">input-topic</text></g><!--entity idExist--><g id="elem_idExist"><ellipse cx="319" cy="86.5" fill="#F1F1F1" rx="8" ry="8" style="stroke:#181818;stroke-width:0.5;"/><text fill="#000000" font-family="sans-serif" font-size="14" lengthAdjust="spacing" textLength="42.7838" x="297.6081" y="118.4659">idExist</text></g><!--entity validateEmitter--><g id="elem_validateEmitter"><ellipse cx="319" cy="185.5" fill="#F1F1F1" rx="8" ry="8" style="stroke:#181818;stroke-width:0.5;"/><text fill="#000000" font-family="sans-serif" font-size="14" lengthAdjust="spacing" textLength="99.8756" x="269.0622" y="217.4659">validateEmitter</text></g><!--entity idTrim--><g id="elem_idTrim"><ellipse cx="564" cy="77.5" fill="#F1F1F1" rx="8" ry="8" style="stroke:#181818;stroke-width:0.5;"/><text fill="#000000" font-family="sans-serif" font-size="14" lengthAdjust="spacing" textLength="42.4898" x="542.7551" y="109.4659">idTrim</text></g><!--entity nameTrim--><g id="elem_nameTrim"><ellipse cx="761" cy="115.5" fill="#F1F1F1" rx="8" ry="8" style="stroke:#181818;stroke-width:0.5;"/><text fill="#000000" font-family="sans-serif" font-size="14" lengthAdjust="spacing" textLength="67.7597" x="727.1201" y="147.4659">nameTrim</text></g><!--entity output-topic--><g id="elem_output-topic"><rect fill="#F1F1F1" height="49.0679" rx="2.5" ry="2.5" style="stroke:#181818;stroke-width:0.5;" width="121.4657" x="917" y="7"/><rect fill="#F1F1F1" height="10" style="stroke:#181818;stroke-width:0.5;" width="15" x="1018.4657" y="12"/><rect fill="#F1F1F1" height="2" style="stroke:#181818;stroke-width:0.5;" width="4" x="1016.4657" y="14"/><rect fill="#F1F1F1" height="2" style="stroke:#181818;stroke-width:0.5;" width="4" x="1016.4657" y="18"/><text fill="#000000" font-family="sans-serif" font-size="14" lengthAdjust="spacing" textLength="81.4657" x="932" y="41.9659">output-topic</text></g><!--entity validate-topic--><g id="elem_validate-topic"><rect fill="#F1F1F1" height="49.0679" rx="2.5" ry="2.5" style="stroke:#181818;stroke-width:0.5;" width="128.5777" x="913" y="91"/><rect fill="#F1F1F1" height="10" style="stroke:#181818;stroke-width:0.5;" width="15" x="1021.5777" y="96"/><rect fill="#F1F1F1" height="2" style="stroke:#181818;stroke-width:0.5;" width="4" x="1019.5777" y="98"/><rect fill="#F1F1F1" height="2" style="stroke:#181818;stroke-width:0.5;" width="4" x="1019.5777" y="102"/><text fill="#000000" font-family="sans-serif" font-size="14" lengthAdjust="spacing" textLength="88.5777" x="928" y="125.9659">validate-topic</text></g><!--entity trimEmitter--><g id="elem_trimEmitter"><ellipse cx="564" cy="174.5" fill="#F1F1F1" rx="8" ry="8" style="stroke:#181818;stroke-width:0.5;"/><text fill="#000000" font-family="sans-serif" font-size="14" lengthAdjust="spacing" textLength="75.8097" x="526.0951" y="206.4659">trimEmitter</text></g><!--entity trim-topic--><g id="elem_trim-topic"><rect fill="#F1F1F1" height="49.0679" rx="2.5" ry="2.5" style="stroke:#181818;stroke-width:0.5;" width="104.5118" x="925" y="175"/><rect fill="#F1F1F1" height="10" style="stroke:#181818;stroke-width:0.5;" width="15" x="1009.5118" y="180"/><rect fill="#F1F1F1" height="2" style="stroke:#181818;stroke-width:0.5;" width="4" x="1007.5118" y="182"/><rect fill="#F1F1F1" height="2" style="stroke:#181818;stroke-width:0.5;" width="4" x="1007.5118" y="186"/><text fill="#000000" font-family="sans-serif" font-size="14" lengthAdjust="spacing" textLength="64.5118" x="940" y="209.9659">trim-topic</text></g><!--link input-topic to idExist--><g id="link_input-topic_idExist"><path d="M119.11,125.65 C182.44,113.18 275.4229,94.8785 304.0829,89.2385 " fill="none" id="input-topic-to-idExist" style="stroke:#181818;stroke-width:1.0;"/><polygon fill="#181818" points="309.97,88.08,300.367,85.8931,305.0641,89.0454,301.9117,93.7425,309.97,88.08" style="stroke:#181818;stroke-width:1.0;"/><text fill="#000000" font-family="sans-serif" font-size="13" lengthAdjust="spacing" textLength="69.8621" x="156" y="100.397">Main Route</text></g><!--link input-topic to validateEmitter--><g id="link_input-topic_validateEmitter"><path d="M119.15,151.58 C129.05,154.06 139.3,156.47 149,158.5 C210.37,171.31 279.4285,180.589 303.9085,183.719 " fill="none" id="input-topic-to-validateEmitter" style="stroke:#181818;stroke-width:1.0;"/><polygon fill="#181818" points="309.86,184.48,301.44,179.3709,304.9004,183.8459,300.4254,187.3063,309.86,184.48" style="stroke:#181818;stroke-width:1.0;"/><text fill="#000000" font-family="sans-serif" font-size="13" lengthAdjust="spacing" textLength="81.1721" x="150" y="154.397">Validate Rout</text></g><!--link idExist to idTrim--><g id="link_idExist_idTrim"><path d="M328.09,86.2 C364.98,84.83 511.1741,79.4224 548.6441,78.0324 " fill="none" id="idExist-to-idTrim" style="stroke:#181818;stroke-width:1.0;"/><polygon fill="#181818" points="554.64,77.81,545.4979,74.1464,549.6434,77.9954,545.7945,82.1409,554.64,77.81" style="stroke:#181818;stroke-width:1.0;"/><text fill="#000000" font-family="sans-serif" font-size="13" lengthAdjust="spacing" textLength="69.8621" x="413" y="76.397">Main Route</text></g><!--link idTrim to nameTrim--><g id="link_idTrim_nameTrim"><path d="M573.06,83.8 C586.05,93.51 612.84,111.73 639,118.5 C680.3,129.18 726.3002,122.1745 746.0102,118.3445 " fill="none" id="idTrim-to-nameTrim" style="stroke:#181818;stroke-width:1.0;"/><polygon fill="#181818" points="751.9,117.2,742.3023,114.9902,746.9918,118.1537,743.8283,122.8433,751.9,117.2" style="stroke:#181818;stroke-width:1.0;"/><text fill="#000000" font-family="sans-serif" font-size="13" lengthAdjust="spacing" textLength="69.8621" x="646" y="114.397">Main Route</text></g><!--link idTrim to nameTrim--><g id="link_idTrim_nameTrim"><path d="M573.05,77.39 C596.57,77.28 666.95,78.51 722,95.5 C732.97,98.88 739.4143,102.2304 746.8543,106.9204 " fill="none" id="idTrim-to-nameTrim-1" style="stroke:#181818;stroke-width:1.0;"/><polygon fill="#181818" points="751.93,110.12,746.4495,101.9368,747.7003,107.4537,742.1834,108.7044,751.93,110.12" style="stroke:#181818;stroke-width:1.0;"/><text fill="#000000" font-family="sans-serif" font-size="13" lengthAdjust="spacing" textLength="81.1721" x="640" y="77.397">Validate Rout</text></g><!--link nameTrim to output-topic--><g id="link_nameTrim_output-topic"><path d="M770.28,108.48 C777.67,102.5 789.01,94.02 800,88.5 C837.13,69.87 875.8644,57.1296 910.9144,47.4996 " fill="none" id="nameTrim-to-output-topic" style="stroke:#181818;stroke-width:1.0;"/><polygon fill="#181818" points="916.7,45.91,906.9619,44.4373,911.8787,47.2347,909.0813,52.1515,916.7,45.91" style="stroke:#181818;stroke-width:1.0;"/><text fill="#000000" font-family="sans-serif" font-size="13" lengthAdjust="spacing" textLength="69.8621" x="807" y="53.397">Main Route</text></g><!--link validateEmitter to idTrim--><g id="link_validateEmitter_idTrim"><path d="M328.16,187.27 C353.99,192.41 435.38,204.97 489,172.5 C510.52,159.47 503.66,144.44 519,124.5 C530.31,109.79 541.1496,98.5741 550.3996,89.5741 " fill="none" id="validateEmitter-to-idTrim" style="stroke:#181818;stroke-width:1.0;"/><polygon fill="#181818" points="554.7,85.39,545.46,88.7993,551.1164,88.8768,551.0389,94.5331,554.7,85.39" style="stroke:#181818;stroke-width:1.0;"/><text fill="#000000" font-family="sans-serif" font-size="13" lengthAdjust="spacing" textLength="81.1721" x="407" y="168.397">Validate Rout</text></g><!--link nameTrim to validate-topic--><g id="link_nameTrim_validate-topic"><path d="M770.15,115.5 C793.3,115.5 855.12,115.5 906.75,115.5 " fill="none" id="nameTrim-to-validate-topic" style="stroke:#181818;stroke-width:1.0;"/><polygon fill="#181818" points="912.75,115.5,903.75,111.5,907.75,115.5,903.75,119.5,912.75,115.5" style="stroke:#181818;stroke-width:1.0;"/><text fill="#000000" font-family="sans-serif" font-size="13" lengthAdjust="spacing" textLength="81.1721" x="801" y="111.397">Validate Rout</text></g><!--link idExist to trimEmitter--><g id="link_idExist_trimEmitter"><path d="M328.13,89.22 C352.57,97.41 427.51,122.73 489,145.5 C513.07,154.41 535.6676,163.4305 549.2676,168.9305 " fill="none" id="idExist-to-trimEmitter" style="stroke:#181818;stroke-width:1.0;"/><polygon fill="#181818" points="554.83,171.18,547.9861,164.0975,550.1947,169.3054,544.9868,171.514,554.83,171.18" style="stroke:#181818;stroke-width:1.0;"/><text fill="#000000" font-family="sans-serif" font-size="13" lengthAdjust="spacing" textLength="67.4961" x="414" y="112.397">Trim Route</text></g><!--link validateEmitter to trimEmitter--><g id="link_validateEmitter_trimEmitter"><path d="M328.07,191.02 C342.77,200.7 375.24,220.39 406,227.5 C441.94,235.81 453.88,238.78 489,227.5 C516.38,218.7 537.979,199.8642 550.639,187.2542 " fill="none" id="validateEmitter-to-trimEmitter" style="stroke:#181818;stroke-width:1.0;"/><polygon fill="#181818" points="554.89,183.02,545.6906,186.5373,551.3475,186.5485,551.3363,192.2054,554.89,183.02" style="stroke:#181818;stroke-width:1.0;"/><text fill="#000000" font-family="sans-serif" font-size="13" lengthAdjust="spacing" textLength="67.4961" x="414" y="223.397">Trim Route</text></g><!--link trimEmitter to nameTrim--><g id="link_trimEmitter_nameTrim"><path d="M573,174.97 C596.96,176.05 669.71,176.88 722,151.5 C734.92,145.23 742.5744,137.645 749.4544,129.185 " fill="none" id="trimEmitter-to-nameTrim" style="stroke:#181818;stroke-width:1.0;"/><polygon fill="#181818" points="753.24,124.53,744.4582,128.9887,750.0853,128.4092,750.6649,134.0363,753.24,124.53" style="stroke:#181818;stroke-width:1.0;"/><text fill="#000000" font-family="sans-serif" font-size="13" lengthAdjust="spacing" textLength="67.4961" x="647" y="147.397">Trim Route</text></g><!--link nameTrim to trim-topic--><g id="link_nameTrim_trim-topic"><path d="M770.28,122.51 C777.67,128.5 789.01,136.98 800,142.5 C840.01,162.57 882.8014,176.1083 918.8714,185.6983 " fill="none" id="nameTrim-to-trim-topic" style="stroke:#181818;stroke-width:1.0;"/><polygon fill="#181818" points="924.67,187.24,916.9999,181.0618,919.8379,185.9553,914.9444,188.7932,924.67,187.24" style="stroke:#181818;stroke-width:1.0;"/><text fill="#000000" font-family="sans-serif" font-size="13" lengthAdjust="spacing" textLength="67.4961" x="808" y="138.397">Trim Route</text></g><!--SRC=[VP0z3W8X44PxJZ4Nu08MTblQ66EpiI0BwYGBR73MU7nXVuHPqVQRDzyywCsLW3m4lDq9D0RJ4NedX6ZH3ID9yWDs5v1o3wYR5pu8Td1GwE3eHp8LxAbwr8fCOv78X8YVbsHQ4MBjcJjF0IslNB8qTigQR-2J9gIDKM70GB5rOIUvLlqgP_ZXjJoV_lDGYclvHwQIsR6c-1Ck1nlJWkAQQISh5jWR]--></g></svg>